<svg xmlns="http://www.w3.org/2000/svg" viewBox="0 0 374 113.64"><defs><style>.cls-1{fill:#fff;}</style></defs><title>logo-w</title><g id="Capa_2" data-name="Capa 2"><g id="Capa_1-2" data-name="Capa 1"><path class="cls-1" d="M84.36.29,51,67.08H33.69L0,.29H13l28.79,57,1.15-.57L71.4.29Z"/><path class="cls-1" d="M107.39,67.08H96.16V.29h11.23Z"/><path class="cls-1" d="M196.07,47.51c0,7.48-2,12.66-5.76,15.54-3.45,2.59-8.64,4-16.12,4h-33.4c-14.68,0-21.88-6.33-21.88-19h11.51c0,5.76,4,8.64,12.39,8.64H171.6c4,0,6.91-.58,8.92-1.73,2.59-1.44,4-4,4-7.77,0-4.32-2.3-7.2-6.62-8.64a40.41,40.41,0,0,0-12.09-1.44c-2,0-5.47,0-9.5.29-4.32.29-7.49.29-9.5.29-8.35,0-14.69-1.15-19-3.17-5.75-2.88-8.92-8.35-8.92-15.84q0-10.36,6-14.68c3.46-2.59,8.93-3.74,15.84-3.74h31.67C188,.29,196.07,6.62,196.07,19H184c0-5.76-4.32-8.64-12.67-8.64H141.37Q131,10.36,131,19c0,6.05,6.33,8.93,19,8.93,2,0,4.9,0,8.93-.29s6.91-.29,8.92-.29c8.64,0,15.26,1.15,19.58,3.46C192.9,34.26,196.07,39.73,196.07,47.51Z"/><path class="cls-1" d="M286.19,47.22c0,8.35-2.88,14.11-8.35,16.7-4,2-12.38,3.16-24.48,3.16H238.68c-9.21,0-16.12-.86-20.44-2.3a15.54,15.54,0,0,1-9.5-9.5C207,51,206.43,44.34,206.43,34.84c0-10.08.58-17.28,2-21.6,1.73-4.89,4.61-8.63,9.21-10.36C222,1.15,229.18,0,239,0h14.68C265.46,0,273.81,1.73,279,4.89c4.89,3.17,7.2,8.07,7.2,14.4H275.53c0-4.32-2-6.91-6-8.35-2.59-.86-8.06-1.15-16.13-1.15H239.83c-8.92,0-15,.86-17.56,2.59-3.17,2-4.9,7.2-4.9,15V37.43c0,8.92,1.44,14.39,4.61,16.7,2.59,1.73,8.35,2.88,17.56,2.88h14.11c8.35,0,13.82-.29,16.13-1.15q6-1.74,6-8.64ZM262,37.43H216.8V27.64H262Z"/><path class="cls-1" d="M374,37.43c0,8.92-1.15,15.26-3.17,19.58-2,4-5.76,6.91-10.65,8.35-4,1.15-10.65,1.72-19.58,1.72H328.22c-9.21,0-16.12-.86-20.44-2.3a15.54,15.54,0,0,1-9.5-9.5C296.55,51,296,44.05,296,34.84c0-9.79.57-17,2-21.31A15.64,15.64,0,0,1,307.2,2.88C311.52.86,318.72,0,328.51,0H340.6C351,0,358.45,1.15,363.06,3.17s7.49,6,8.92,11.51C373.42,19,374,26.49,374,37.43Zm-11.52-.29V30.81c0-6.34-.57-10.94-2-13.54q-1.73-3.88-6.91-5.18c-2.31-.57-6.91-.86-13.53-.86H329.09c-9.22,0-15,.86-17.28,2.88-2.88,2.3-4.32,8.06-4.32,16.7v6.33c0,8.64,1.44,14.11,4.61,16.41,2.3,1.73,8.06,2.59,17,2.59H340.6c6.62,0,10.94-.28,13.25-.86,3.45-.58,5.75-2.3,6.91-4.9S362.48,43.19,362.48,37.14Z"/><path class="cls-1" d="M7.24,87.09H19.41c8.77,0,14.78,5.15,14.78,13s-6,13-14.78,13H7.24Zm11.87,21.14c5.32,0,8.8-3.09,8.8-8.09s-3.48-8.09-8.8-8.09H13.44v16.18Z"/><path class="cls-1" d="M39.24,87.09h6.2v26.1h-6.2Z"/><path class="cls-1" d="M70.28,99.73h5.66v10.59a18.75,18.75,0,0,1-10.83,3.32c-8.42,0-14.62-5.63-14.62-13.5s6.2-13.5,14.74-13.5c4.7,0,8.61,1.57,11.21,4.51l-4,3.58a9.18,9.18,0,0,0-6.93-2.94c-5.2,0-8.76,3.39-8.76,8.35s3.56,8.36,8.69,8.36a10.06,10.06,0,0,0,4.82-1.12Z"/><path class="cls-1" d="M82.07,87.09h6.2v26.1h-6.2Z"/><path class="cls-1" d="M100.55,92H92V87.09h23.35V92h-8.58v21.18h-6.2Z"/><path class="cls-1" d="M135.34,107.6H122.91l-2.38,5.59h-6.35l11.94-26.1h6.12l12,26.1h-6.5Zm-2-4.59-4.24-10-4.25,10Z"/><path class="cls-1" d="M147.4,87.09h6.2v21.18H167v4.92H147.4Z"/><path class="cls-1" d="M206.69,106.07c0,4.51-3.68,7.12-10.72,7.12H182.12V87.09H195.2c6.7,0,10.15,2.72,10.15,6.79a6.26,6.26,0,0,1-3.56,5.74A6.48,6.48,0,0,1,206.69,106.07ZM188.28,91.64v6.15h6.16c3,0,4.67-1,4.67-3.09s-1.65-3.06-4.67-3.06Zm12.17,13.8c0-2.2-1.72-3.25-4.94-3.25h-7.23v6.45h7.23C198.73,108.64,200.45,107.68,200.45,105.44Z"/><path class="cls-1" d="M229.42,107.6H217l-2.37,5.59h-6.35l11.94-26.1h6.12l12,26.1h-6.51ZM227.47,103l-4.25-10L219,103Z"/><path class="cls-1" d="M266.05,87.09v26.1H261L247.6,97.35v15.84h-6.12V87.09h5.13l13.32,15.85V87.09Z"/><path class="cls-1" d="M282.55,102.94l-3.6,3.65v6.6h-6.16V87.09H279V99.28l11.86-12.19h6.89L286.6,98.72l11.75,14.47h-7.23Z"/><path class="cls-1" d="M301.49,87.09h6.2v26.1h-6.2Z"/><path class="cls-1" d="M339,87.09v26.1h-5.09L320.55,97.35v15.84h-6.12V87.09h5.13l13.32,15.85V87.09Z"/><path class="cls-1" d="M363.84,99.73h5.66v10.59a18.75,18.75,0,0,1-10.83,3.32c-8.42,0-14.62-5.63-14.62-13.5s6.2-13.5,14.74-13.5c4.7,0,8.61,1.57,11.21,4.51l-4,3.58a9.18,9.18,0,0,0-6.93-2.94c-5.2,0-8.76,3.39-8.76,8.35s3.56,8.36,8.69,8.36a10.06,10.06,0,0,0,4.82-1.12Z"/></g></g></svg>