<svg xmlns="http://www.w3.org/2000/svg" viewBox="0 0 374 113.09"><defs><style>.cls-1{fill:#fff;}</style></defs><title>v-dbank-logo-w</title><g id="Capa_2" data-name="Capa 2"><g id="Capa_1-2" data-name="Capa 1"><path class="cls-1" d="M84.36.29,51,67.08H33.69L0,.29H13l28.79,57,1.15-.57L71.4.29Z"/><path class="cls-1" d="M107.39,67.08H96.16V.29h11.23Z"/><path class="cls-1" d="M196.07,47.51c0,7.48-2,12.66-5.76,15.54-3.45,2.59-8.64,4-16.12,4h-33.4c-14.68,0-21.88-6.33-21.88-19h11.51c0,5.76,4,8.64,12.39,8.64H171.6c4,0,6.91-.58,8.92-1.73,2.59-1.44,4-4,4-7.77,0-4.32-2.3-7.2-6.62-8.64a40.41,40.41,0,0,0-12.09-1.44c-2,0-5.47,0-9.5.29-4.32.29-7.49.29-9.5.29-8.35,0-14.69-1.15-19-3.17-5.75-2.88-8.92-8.35-8.92-15.84q0-10.36,6-14.68c3.46-2.59,8.93-3.74,15.84-3.74h31.67C188,.29,196.07,6.62,196.07,19H184c0-5.76-4.32-8.64-12.67-8.64H141.37Q131,10.36,131,19c0,6.05,6.33,8.93,19,8.93,2,0,4.9,0,8.93-.29s6.91-.29,8.92-.29c8.64,0,15.26,1.15,19.58,3.46C192.9,34.26,196.07,39.73,196.07,47.51Z"/><path class="cls-1" d="M286.19,47.22c0,8.35-2.88,14.11-8.35,16.7-4,2-12.38,3.16-24.48,3.16H238.68c-9.21,0-16.12-.86-20.44-2.3a15.54,15.54,0,0,1-9.5-9.5C207,51,206.43,44.34,206.43,34.84c0-10.08.58-17.28,2-21.6,1.73-4.89,4.61-8.63,9.21-10.36C222,1.15,229.18,0,239,0h14.68C265.46,0,273.81,1.73,279,4.89c4.89,3.17,7.2,8.07,7.2,14.4H275.53c0-4.32-2-6.91-6-8.35-2.59-.86-8.06-1.15-16.13-1.15H239.83c-8.92,0-15,.86-17.56,2.59-3.17,2-4.9,7.2-4.9,15V37.43c0,8.92,1.44,14.39,4.61,16.7,2.59,1.73,8.35,2.88,17.56,2.88h14.11c8.35,0,13.82-.29,16.13-1.15q6-1.74,6-8.64ZM262,37.43H216.8V27.64H262Z"/><path class="cls-1" d="M374,37.43c0,8.92-1.15,15.26-3.17,19.58-2,4-5.76,6.91-10.65,8.35-4,1.15-10.65,1.72-19.58,1.72H328.22c-9.21,0-16.12-.86-20.44-2.3a15.54,15.54,0,0,1-9.5-9.5C296.55,51,296,44.05,296,34.84c0-9.79.57-17,2-21.31A15.64,15.64,0,0,1,307.2,2.88C311.52.86,318.72,0,328.51,0H340.6C351,0,358.45,1.15,363.06,3.17s7.49,6,8.92,11.51C373.42,19,374,26.49,374,37.43Zm-11.52-.29V30.81c0-6.34-.57-10.94-2-13.54q-1.73-3.88-6.91-5.18c-2.31-.57-6.91-.86-13.53-.86H329.09c-9.22,0-15,.86-17.28,2.88-2.88,2.3-4.32,8.06-4.32,16.7v6.33c0,8.64,1.44,14.11,4.61,16.41,2.3,1.73,8.06,2.59,17,2.59H340.6c6.62,0,10.94-.28,13.25-.86,3.45-.58,5.75-2.3,6.91-4.9S362.48,43.19,362.48,37.14Z"/><path class="cls-1" d="M9,85.55H20.12c8.74,0,14.63,5.62,14.63,13.65s-5.89,13.65-14.63,13.65H9Zm11,24.8c7.25,0,11.93-4.6,11.93-11.15S27.22,88.05,20,88.05H11.89v22.3Z"/><path class="cls-1" d="M41.61,85.55H44.5v27.3H41.61Z"/><path class="cls-1" d="M73,99.2h2.77v10.41a15.07,15.07,0,0,1-10,3.48c-8.31,0-14.39-5.89-14.39-13.89s6.08-13.88,14.43-13.88c4.13,0,7.72,1.32,10.14,3.94l-1.8,1.83a11.13,11.13,0,0,0-8.22-3.2c-6.75,0-11.7,4.8-11.7,11.31s4.95,11.31,11.66,11.31A11.74,11.74,0,0,0,73,108.4Z"/><path class="cls-1" d="M84.31,85.55H87.2v27.3H84.31Z"/><path class="cls-1" d="M101.79,88.05h-9.6v-2.5h22.08v2.5h-9.6v24.8h-2.88Z"/><path class="cls-1" d="M135,105.56H119.8l-3.27,7.29h-3L126,85.55h2.85l12.48,27.3h-3Zm-1-2.34-6.55-14.67-6.55,14.67Z"/><path class="cls-1" d="M146.24,85.55h2.89v24.8h15.29v2.5H146.24Z"/><path class="cls-1" d="M203,105.56c0,4.64-3.43,7.29-10.26,7.29H180.21V85.55H192c6.09,0,9.6,2.57,9.6,7a6.33,6.33,0,0,1-4.18,6.2C200.92,99.55,203,101.85,203,105.56ZM183.1,87.93v9.91h8.7c4.37,0,6.9-1.68,6.9-5s-2.53-4.95-6.9-4.95Zm17,17.39c0-3.55-2.61-5.11-7.41-5.11H183.1v10.26h9.63C197.53,110.47,200.14,108.91,200.14,105.32Z"/><path class="cls-1" d="M227.13,105.56H211.92l-3.28,7.29h-3l12.48-27.3H221l12.48,27.3h-3Zm-1-2.34-6.56-14.67L213,103.22Z"/><path class="cls-1" d="M261.18,85.55v27.3H258.8L241.25,90.7v22.15h-2.89V85.55h2.38l17.59,22.15V85.55Z"/><path class="cls-1" d="M278.92,100l-5.58,5.65v7.18h-2.88V85.55h2.88v16.5l16-16.5h3.32L280.87,97.91l12.64,14.94h-3.43Z"/><path class="cls-1" d="M298.58,85.55h2.88v27.3h-2.88Z"/><path class="cls-1" d="M333.56,85.55v27.3h-2.38L313.63,90.7v22.15h-2.89V85.55h2.38l17.59,22.15V85.55Z"/><path class="cls-1" d="M362.07,99.2h2.77v10.41a15.09,15.09,0,0,1-10,3.48c-8.3,0-14.39-5.89-14.39-13.89s6.09-13.88,14.43-13.88c4.14,0,7.73,1.32,10.14,3.94l-1.79,1.83a11.14,11.14,0,0,0-8.23-3.2c-6.75,0-11.7,4.8-11.7,11.31s5,11.31,11.66,11.31a11.79,11.79,0,0,0,7.14-2.11Z"/></g></g></svg>